<svg version="1.2" xmlns="http://www.w3.org/2000/svg" viewBox="0 0 253 250" width="253" height="250">
	<style>
		.s0 { fill: #ffffff } 
		.s1 { fill: #000000 } 
	</style>
	<path id="Forma 1" fill-rule="evenodd" class="s0" d="m125.5 243.7c-67.2 0-121.5-53-121.5-118.7 0-65.7 54.3-118.7 121.5-118.7 67.2 0 121.5 53 121.5 118.7 0 65.7-54.3 118.7-121.5 118.7z"/>
	<g>
		<path class="s1" d="m110 1c-33 4.7-63.8 22.2-83.4 47.4-17.1 22.1-25.3 44.3-26.3 71.6-0.8 23.5 3.1 41.4 13.7 61.9 17.2 33.3 48 56.5 86.5 65.1 14.2 3.2 36.7 3.2 51.5 0.1 49.3-10.5 87.1-47.7 98-96.6 2.7-12 3.2-34.5 1.1-46.5-4.3-24-15.7-46.3-32.9-64.2-18.6-19.4-40.8-31.7-67.2-37.4-9-1.9-31.9-2.6-41-1.4zm38.3 36.2c0.9 0.7 3.2 3.5 5 6.2 2.3 3.6 5.3 6.3 11.2 9.9 9.5 5.8 12.8 8.8 16.2 14.5 3 5.1 4.1 14.6 2.4 20.9-4.4 16.3-33.9 28.3-64.3 26.1-31-2.3-51.8-15.4-51.8-32.7 0-12.3 4.7-18.8 19.5-27.1 8-4.5 10-6.2 11.7-9.5 4.5-9 6.9-9.9 17.6-6.5 8.2 2.6 12.3 2.5 19.7-0.5 6.8-2.7 10.4-3 12.8-1.3zm-53.5 86.2c2.2 2.2 3 8.8 2.2 18.9-1.5 18.3 0.1 41.5 4.9 71.2 1.1 6.5 1.8 12.1 1.6 12.3-0.8 0.8-7-5-10.9-10.2-16.7-21.8-24.2-71.9-13.5-89.4 3.4-5.8 11.4-7.2 15.7-2.8zm75.3 0.3c1.5 1.4 3.5 5 4.5 8.1 2.6 7.9 2.7 32.2 0.1 43.9-4.2 19.5-11.7 36-20.5 44.9-5.7 5.8-7.5 6.7-6.7 3.1 0.6-2.7 3.8-23.6 5.7-36.7 0.8-6.2 1.2-18.4 1.1-35-0.2-28.2 0-29.2 6-30.8 4.2-1.1 6.6-0.5 9.8 2.5zm-26.9 8.3c0.6 5.8 0.4 6.9-1.8 10.2-1.3 2.1-2.7 3.8-3 3.8-0.3 0-1.9-0.9-3.5-2.1l-2.9-2-2.6 2c-3.3 2.6-3.9 2.6-7.6 0l-3-2.2-2.8 2.1c-2.6 2-2.9 2-4.3 0.4-3-3.5-3.8-6.3-3.2-11 1.3-9-0.3-8.3 17.8-8l16.2 0.3zm-21.7 27c1.6 1.6 3.4 3 4 3 0.6 0 2.4-1.4 4-3 3.6-3.7 5.4-3.8 8.8-0.2 2.6 2.7 2.7 3.3 2.7 12.8 0 5.4-0.4 10.5-0.8 11.2-0.7 0.9-4.4 1.2-15.3 1l-14.4-0.3-0.9-11-0.8-10.9 3.1-2.8c4-3.6 6-3.5 9.6 0.2z"/>
		<path class="s1" d="m91.3 69.9c-3.9 2.8-7.3 8.9-7.3 13 0 7.5 21.2 7.9 28.1 0.5l2.2-2.3-2.5-4.8c-4.7-9.3-13-11.9-20.5-6.4z"/>
		<path class="s1" d="m146.3 69c-4.1 2.4-8.6 9.1-8.1 12.1 0.8 5.5 17.2 9.8 25.1 6.6 3.5-1.5 3.7-1.8 3.7-6.3 0-4.3-0.4-5.1-4.9-9.5-4.1-4.2-5.4-4.9-8.7-4.9-2.1 0-5.3 0.9-7.1 2z"/>
		<path class="s1" d="m121.1 93.3c-3.5 1.8-5 4.5-3.1 5.7 2 1.3 11.6 1.3 14 0 2.5-1.3 1.6-3.6-2.1-5.5-3.4-1.8-5.6-1.9-8.8-0.2z"/>
	</g>
</svg>